<svg xmlns="http://www.w3.org/2000/svg" viewBox="0 0 24 24" width="24" height="24" role="img" aria-label="GitHub">
  <path fill="currentColor" d="M12 .5A11.5 11.5 0 0 0 .5 12a11.5 11.5 0 0 0 7.86 10.92c.58.1.79-.25.79-.56v-2c-3.2.7-3.88-1.37-3.88-1.37-.53-1.34-1.29-1.7-1.29-1.7-1.05-.72.08-.7.08-.7 1.16.08 1.77 1.2 1.77 1.2 1.03 1.77 2.7 1.26 3.36.96.1-.75.4-1.26.73-1.55-2.55-.29-5.24-1.28-5.24-5.68 0-1.26.45-2.28 1.19-3.09-.12-.29-.52-1.46.11-3.04 0 0 .97-.31 3.18 1.18a11 11 0 0 1 5.8 0c2.2-1.49 3.17-1.18 3.17-1.18.63 1.58.23 2.75.12 3.04.74.81 1.18 1.83 1.18 3.09 0 4.41-2.69 5.39-5.25 5.67.41.36.78 1.06.78 2.14v3.17c0 .31.21.67.8.56A11.5 11.5 0 0 0 23.5 12 11.5 11.5 0 0 0 12 .5Z"/>
</svg>
